<?xml version="1.0" standalone="no"?>
<!DOCTYPE svg PUBLIC "-//W3C//DTD SVG 20010904//EN"
 "http://www.w3.org/TR/2001/REC-SVG-20010904/DTD/svg10.dtd">
<svg version="1.0" xmlns="http://www.w3.org/2000/svg"
 width="1280.000000pt" height="1061.000000pt" viewBox="0 0 1280.000000 1061.000000"
 preserveAspectRatio="xMidYMid meet">

<g transform="translate(0.000000,1061.000000) scale(0.100000,-0.100000)"
fill="#000000" stroke="none">
<path d="M9140 9398 c-10 -24 -22 -56 -25 -71 -10 -49 -30 -25 -28 32 2 38 -1
50 -10 45 -14 -8 -96 -73 -114 -90 -7 -7 -27 -15 -44 -19 -17 -4 -33 -13 -36
-21 -3 -7 -29 -24 -57 -37 -42 -20 -77 -26 -178 -32 -74 -4 -128 -3 -131 2 -3
5 1 29 9 52 8 24 13 45 11 47 -2 2 -34 -12 -71 -31 -37 -19 -76 -35 -86 -35
-27 0 -39 27 -33 72 3 21 2 38 -1 38 -12 0 -89 -55 -125 -89 -18 -17 -38 -31
-43 -31 -6 0 -33 -23 -60 -52 l-50 -52 -18 24 c-17 23 -20 23 -58 11 -22 -8
-55 -26 -73 -42 -19 -16 -40 -29 -46 -29 -7 0 -13 -3 -13 -7 0 -12 -59 -43
-81 -43 -10 0 -38 20 -61 45 -23 25 -48 45 -55 45 -18 0 -34 -46 -27 -75 9
-37 -12 -38 -52 0 -20 19 -39 34 -40 32 -2 -2 -15 -46 -30 -98 -14 -52 -33
-107 -42 -124 -32 -60 -92 -88 -92 -42 0 45 -14 49 -57 18 -23 -16 -44 -34
-48 -40 -3 -6 -13 -11 -22 -11 -12 0 -14 7 -8 37 l7 38 -24 -20 c-12 -10 -42
-38 -66 -62 -54 -55 -77 -57 -68 -7 4 19 10 42 13 50 3 9 0 12 -8 9 -18 -8
-59 -72 -59 -93 0 -9 -8 -39 -18 -67 l-18 -50 -140 4 c-121 3 -141 1 -154 -14
-12 -14 -11 -20 3 -45 23 -38 21 -62 -5 -93 -27 -31 -143 -92 -193 -101 -19
-4 -35 -11 -35 -16 0 -11 -139 -90 -160 -90 -42 -1 -140 -132 -140 -189 0 -9
-4 -21 -9 -26 -4 -6 -14 -32 -20 -60 -18 -70 -52 -155 -62 -155 -5 0 -9 -7 -9
-15 0 -8 -12 -39 -26 -68 -31 -64 -54 -126 -54 -149 0 -15 4 -15 30 -7 17 6
30 14 30 18 0 4 12 13 26 20 23 10 28 9 41 -9 14 -19 53 -28 53 -12 0 20 153
162 186 172 44 15 52 8 30 -26 -28 -42 -9 -41 37 3 23 22 49 43 58 46 10 3 25
24 35 46 20 47 36 52 52 16 10 -22 56 -44 68 -33 3 3 9 34 15 69 17 102 29
139 44 139 8 0 15 -7 15 -15 0 -8 7 -15 15 -15 8 0 15 9 15 20 0 23 31 41 38
22 9 -27 33 -9 61 46 17 31 49 77 70 102 37 43 40 44 64 31 24 -13 29 -11 64
16 96 75 153 105 181 98 48 -13 142 -17 155 -7 24 19 173 74 255 93 128 29
165 25 220 -25 20 -18 39 -22 142 -26 133 -6 170 -21 180 -76 7 -39 27 -40
115 -10 42 14 77 26 80 26 13 0 2 -30 -28 -75 -36 -53 -38 -75 -6 -75 21 0 29
4 211 99 66 34 124 58 133 55 17 -7 21 -49 5 -59 -8 -5 -15 -45 -7 -45 1 0 24
11 51 25 27 14 55 25 63 25 17 0 17 -24 -2 -59 -15 -30 -45 -161 -45 -198 0
-31 34 -30 107 3 94 43 154 63 217 75 43 8 67 18 88 40 18 18 40 29 57 29 28
0 70 27 117 74 15 14 32 25 38 23 13 -5 9 -64 -6 -94 -16 -33 -2 -40 30 -15
60 49 73 55 84 44 7 -7 3 -24 -16 -58 -51 -92 -28 -96 104 -19 91 54 120 62
120 30 0 -40 56 -3 177 116 45 44 87 78 93 74 6 -3 10 -45 10 -100 0 -101 11
-145 34 -145 16 0 96 99 96 117 0 9 22 23 35 23 2 0 13 -19 24 -42 25 -55 56
-93 68 -85 5 3 15 44 22 91 7 47 19 90 26 96 9 8 25 0 61 -30 68 -56 79 -51
79 35 0 85 13 92 74 40 24 -19 48 -35 55 -35 21 0 36 23 36 56 0 60 43 66 165
23 30 -10 73 -19 95 -19 33 0 40 3 40 20 0 11 -6 20 -13 20 -7 0 -38 21 -68
46 -69 58 -77 65 -116 92 -17 12 -35 31 -38 42 -3 10 -29 33 -58 51 -147 90
-166 138 -54 139 15 0 27 6 27 13 0 12 -95 43 -180 57 -25 4 -58 12 -75 18
-16 6 -59 19 -95 28 -76 20 -110 45 -91 68 13 15 10 19 -34 41 -32 17 -28 36
26 119 36 56 48 81 39 86 -17 11 -46 1 -66 -21 -9 -10 -28 -19 -40 -19 -13 0
-38 -8 -56 -18 -18 -10 -45 -22 -60 -25 -14 -4 -33 -10 -42 -13 -23 -9 -20 9
9 42 14 16 25 35 25 42 0 15 -61 16 -110 2 -74 -22 -174 -40 -192 -35 -13 5
-18 16 -18 43 l0 37 -135 3 c-107 3 -145 8 -179 23 -54 23 -58 29 -86 107 -13
34 -27 62 -31 62 -5 0 -18 -19 -29 -42z"/>
<path d="M7430 7281 c-12 -24 -4 -48 21 -62 22 -11 24 -6 7 22 -11 17 -10 22
5 30 23 13 22 29 -3 29 -10 0 -24 -9 -30 -19z"/>
<path d="M7855 7250 c-10 -15 4 -65 15 -54 13 14 16 57 3 61 -6 2 -14 -1 -18
-7z"/>
<path d="M11252 7147 c-31 -33 -29 -75 4 -87 41 -16 64 -12 73 13 13 33 2 77
-18 77 -9 0 -22 5 -27 10 -7 7 -17 3 -32 -13z m48 -40 c0 -13 -5 -17 -16 -13
-9 3 -20 6 -25 6 -4 0 -6 6 -3 13 7 21 44 16 44 -6z"/>
<path d="M7548 7059 c-22 -13 -24 -62 -2 -83 17 -18 59 -21 69 -7 3 5 -9 11
-27 13 -27 2 -34 8 -36 30 -2 18 3 30 16 37 11 6 22 7 26 4 3 -3 6 -1 6 5 0
15 -29 15 -52 1z"/>
<path d="M8052 6933 c-12 -15 -25 -42 -28 -61 -6 -30 -2 -39 29 -69 l35 -35
50 12 c44 12 53 19 67 51 20 44 13 99 -13 99 -9 0 -26 7 -36 15 -32 24 -79 19
-104 -12z m83 -67 c0 -22 -14 -29 -34 -17 -19 12 -6 43 16 39 10 -2 18 -12 18
-22z"/>
<path d="M10277 6872 c-35 -39 -4 -122 45 -122 23 0 56 31 63 60 14 59 -69
106 -108 62z"/>
<path d="M9540 6825 c-19 -23 -15 -84 7 -100 35 -27 77 -14 102 32 9 18 9 29
-4 53 -13 25 -21 30 -54 30 -22 0 -44 -6 -51 -15z"/>
<path d="M7637 6719 c-21 -12 -23 -62 -3 -78 18 -15 68 -11 74 6 2 9 -5 11
-25 7 -43 -8 -62 17 -33 44 24 22 15 36 -13 21z"/>
<path d="M7466 6543 c-5 -11 -1 -22 9 -30 23 -16 47 -5 43 21 -4 27 -43 34
-52 9z"/>
<path d="M5460 6416 c-16 -7 -20 -18 -20 -62 0 -43 -5 -58 -25 -80 -59 -63
-169 -354 -214 -564 -19 -90 -41 -263 -41 -323 0 -21 -17 -44 -72 -98 -43 -41
-86 -95 -105 -132 -138 -259 -166 -359 -179 -644 -5 -91 -2 -142 9 -195 9 -40
18 -91 22 -113 3 -22 15 -58 25 -80 10 -22 32 -71 49 -108 48 -108 120 -197
301 -374 72 -71 208 -156 400 -251 133 -66 172 -81 370 -147 96 -32 198 -66
225 -75 57 -20 371 -95 458 -110 32 -5 63 -13 69 -16 6 -4 40 -11 77 -16 135
-18 188 -26 286 -42 81 -13 309 -46 322 -46 14 0 -6 -32 -52 -83 -31 -34 -76
-97 -102 -142 -25 -44 -49 -82 -53 -85 -18 -14 -54 -114 -63 -178 -9 -56 -8
-77 1 -90 7 -9 21 -37 33 -62 31 -68 56 -90 103 -90 74 -1 125 -17 198 -60
157 -93 219 -119 322 -136 96 -16 248 -15 317 2 20 4 34 -1 62 -26 26 -23 42
-30 57 -25 16 5 30 -4 63 -38 23 -24 61 -56 84 -71 24 -14 54 -44 67 -65 14
-21 51 -61 82 -87 66 -57 164 -156 164 -166 0 -4 13 -14 29 -22 15 -8 51 -34
79 -58 64 -55 182 -115 251 -128 131 -24 211 -10 361 63 71 34 101 57 187 143
l102 102 263 6 c265 5 312 10 548 61 81 17 224 60 252 76 10 5 22 9 28 9 5 0
33 11 62 24 29 13 75 31 101 41 26 10 50 22 53 26 3 5 12 9 20 9 9 0 61 23
117 51 97 49 107 57 191 155 49 57 92 107 95 112 23 33 58 42 168 42 61 0 114
-4 117 -9 3 -4 28 -11 56 -13 28 -3 58 -12 68 -22 12 -10 37 -16 68 -16 40 -1
56 -7 84 -30 22 -20 45 -30 66 -30 18 0 38 -8 48 -19 10 -11 48 -32 84 -47 64
-25 72 -26 192 -20 l125 6 37 42 c21 24 38 47 38 52 0 9 80 107 110 136 9 8
35 40 58 71 l42 56 -2 654 -3 654 -62 3 c-68 3 -79 12 -35 28 l27 10 -6 145
c-8 165 -20 258 -43 311 -9 21 -16 48 -16 61 0 22 -84 195 -120 247 -9 14 -34
56 -54 94 -41 74 -45 109 -27 205 20 101 15 158 -39 406 -18 85 -73 202 -143
308 -37 56 -201 229 -262 276 -16 13 -42 35 -57 48 -18 17 -49 29 -95 38 -37
7 -102 21 -143 30 -77 17 -260 15 -284 -4 -6 -4 -39 -18 -73 -31 -35 -12 -63
-26 -63 -30 0 -3 -12 -13 -27 -21 -37 -18 -156 -95 -213 -136 -57 -42 -62 -46
-86 -60 -10 -6 -55 -34 -99 -60 -130 -80 -235 -126 -353 -153 -42 -10 -66 -9
-117 1 -41 8 -65 18 -65 26 0 8 -12 13 -28 13 -15 0 -32 4 -37 9 -6 5 -73 30
-150 56 -77 25 -149 50 -160 55 -124 55 -484 130 -700 145 -44 3 -135 13 -202
21 -144 19 -580 15 -698 -6 -96 -17 -104 -27 -78 -87 12 -26 38 -91 59 -143
20 -52 41 -99 46 -105 13 -14 9 -65 -4 -65 -7 0 -31 5 -53 10 -22 6 -76 17
-120 25 -44 8 -98 19 -120 24 -22 5 -67 14 -100 21 -121 23 -178 45 -480 190
-71 34 -152 71 -179 82 -27 10 -69 28 -92 39 -24 10 -46 19 -49 19 -3 0 -25 9
-48 19 -23 11 -89 38 -147 61 -58 23 -130 52 -160 65 -30 13 -116 47 -190 76
-74 29 -178 70 -230 91 -52 22 -110 44 -129 50 -19 5 -57 20 -85 33 -28 13
-96 42 -151 65 -55 23 -143 61 -195 85 -258 117 -337 139 -400 111z m6045
-792 c-14 -26 -13 -30 2 -42 16 -11 15 -13 -5 -28 -12 -8 -22 -26 -22 -40 0
-13 -5 -24 -11 -24 -8 0 -9 11 -5 33 4 17 9 50 13 72 3 22 13 45 22 52 22 16
24 11 6 -23z m115 17 c0 -5 -6 -14 -14 -21 -8 -6 -17 -21 -19 -33 -4 -18 -5
-18 -6 5 0 15 -6 30 -11 33 -6 4 -8 11 -5 16 8 12 55 12 55 0z m-210 -58 l0
-37 -22 21 c-18 18 -19 24 -8 37 20 25 30 19 30 -21z m-119 -19 c10 -13 10
-19 0 -36 -8 -13 -10 -34 -6 -60 7 -40 7 -41 -19 -34 -24 6 -28 3 -38 -25 -14
-41 -28 -20 -28 44 0 40 6 55 33 87 36 45 39 46 58 24z m-111 -44 c0 -5 -4
-10 -10 -10 -5 0 -10 5 -10 10 0 6 5 10 10 10 6 0 10 -4 10 -10z m195 0 c-3
-5 -10 -10 -16 -10 -5 0 -9 5 -9 10 0 6 7 10 16 10 8 0 12 -4 9 -10z m-2585
-21 c0 -24 -23 -21 -28 4 -2 10 3 17 12 17 10 0 16 -9 16 -21z m278 -2 c2 -10
-3 -17 -12 -17 -10 0 -16 9 -16 21 0 24 23 21 28 -4z m-368 -17 c0 -16 -4 -30
-10 -30 -5 0 -10 3 -10 8 0 4 -3 17 -6 30 -5 16 -2 22 10 22 11 0 16 -9 16
-30z m180 15 c0 -8 -4 -15 -10 -15 -5 0 -10 7 -10 15 0 8 5 15 10 15 6 0 10
-7 10 -15z m90 -10 c0 -28 -15 -34 -24 -9 -10 25 -7 34 9 34 9 0 15 -9 15 -25z
m190 5 c0 -5 -4 -10 -10 -10 -5 0 -10 5 -10 10 0 6 5 10 10 10 6 0 10 -4 10
-10z m90 -10 c0 -5 -4 -10 -10 -10 -5 0 -10 5 -10 10 0 6 5 10 10 10 6 0 10
-4 10 -10z m220 -15 c0 -8 -7 -15 -15 -15 -8 0 -15 7 -15 15 0 8 7 15 15 15 8
0 15 -7 15 -15z m220 -9 c0 -3 -4 -8 -10 -11 -5 -3 -10 -1 -10 4 0 6 5 11 10
11 6 0 10 -2 10 -4z m1450 -37 c0 -12 -8 -37 -17 -56 -15 -33 -15 -36 0 -48 9
-7 17 -19 17 -27 0 -18 -28 -44 -37 -35 -12 13 -5 120 12 175 7 20 25 14 25
-9z m-1240 -9 c0 -5 -4 -10 -10 -10 -5 0 -10 5 -10 10 0 6 5 10 10 10 6 0 10
-4 10 -10z m1167 -76 c2 -7 -4 -19 -13 -28 -11 -12 -14 -26 -10 -46 6 -34 -2
-63 -16 -54 -5 3 -18 -2 -29 -12 -18 -17 -19 -16 -21 17 -5 91 18 141 61 136
14 -1 26 -7 28 -13z m606 -1 c-7 -2 -21 -2 -30 0 -10 3 -4 5 12 5 17 0 24 -2
18 -5z m51 -110 l-7 -26 72 7 c74 6 130 -9 131 -37 4 -89 9 -166 15 -228 9
-91 -3 -153 -45 -243 -38 -80 -99 -136 -204 -190 -85 -44 -79 -45 -116 26 -27
50 -25 84 5 120 30 36 31 49 5 73 -41 37 -47 127 -12 168 13 15 14 21 4 35 -7
9 -20 32 -29 50 -16 30 -16 36 -3 60 9 14 40 46 70 71 72 59 96 89 81 104 -16
16 -14 25 7 30 31 8 32 7 26 -20z m-800 -25 c11 -54 14 -98 7 -102 -13 -8 -34
12 -28 27 3 8 -1 27 -9 42 -11 21 -11 31 -3 41 17 20 28 17 33 -8z m-226 -103
c-4 -31 -1 -48 8 -56 14 -11 24 5 47 71 4 12 6 11 12 -5 3 -11 13 -32 21 -47
18 -33 18 -52 0 -67 -11 -10 -16 -8 -24 5 -15 27 -42 10 -42 -26 0 -29 -17
-42 -24 -17 -8 29 -24 172 -20 179 3 5 10 8 16 8 7 0 9 -16 6 -45z m-1245
-105 c-7 -28 -13 -25 -13 6 0 14 4 23 9 20 5 -3 7 -15 4 -26z m113 -26 c10
-41 -16 -50 -43 -16 -26 30 -29 48 -10 55 20 7 46 -12 53 -39z m-154 -1 c16
-30 14 -53 -6 -53 -13 0 -38 58 -30 71 9 15 19 10 36 -18z m-142 -50 c11 -10
20 -24 20 -31 0 -12 -3 -12 -15 -2 -9 7 -18 10 -22 7 -9 -9 -33 12 -33 29 0
19 26 17 50 -3z m1607 -55 c-3 -8 -6 -5 -6 6 -1 11 2 17 5 13 3 -3 4 -12 1
-19z m-2176 -145 c40 -87 50 -98 117 -128 66 -30 96 -31 164 -5 61 23 87 25
123 8 30 -13 65 -74 65 -111 0 -23 -47 -98 -70 -112 -23 -14 13 -25 85 -25 39
0 81 -6 95 -13 62 -32 64 -109 4 -171 -42 -44 -39 -50 36 -77 68 -24 80 -35
80 -73 0 -39 -56 -111 -113 -147 -23 -14 -78 -34 -122 -44 -44 -10 -83 -20
-87 -22 -4 -2 -3 -16 1 -31 18 -58 41 -148 45 -177 3 -16 10 -46 16 -65 17
-55 50 -241 44 -251 -3 -5 -13 -9 -23 -9 -9 0 -22 -5 -28 -11 -9 -9 -18 -8
-37 5 -28 18 -33 35 -15 53 20 20 -20 336 -56 448 -13 40 -13 40 -76 48 -137
17 -305 142 -347 258 -42 113 -39 463 4 616 13 44 47 103 59 103 2 0 18 -30
36 -67z m1889 48 c0 -5 -7 -14 -15 -21 -8 -7 -15 -10 -15 -7 0 3 -3 12 -6 21
-4 12 0 16 15 16 12 0 21 -4 21 -9z m190 -8 c0 -5 -7 -17 -15 -27 -11 -14 -18
-17 -26 -9 -8 8 -4 15 12 27 27 18 29 19 29 9z m-5 -73 c3 -5 -1 -10 -10 -10
-9 0 -13 5 -10 10 3 6 8 10 10 10 2 0 7 -4 10 -10z m-274 -32 c5 -54 -13 -104
-32 -92 -12 7 -11 61 1 85 12 21 29 25 31 7z m199 -5 c0 -5 -5 -15 -10 -23 -8
-12 -10 -11 -10 8 0 12 5 22 10 22 6 0 10 -3 10 -7z m110 -14 c0 -11 -4 -17
-10 -14 -5 3 -10 13 -10 21 0 8 5 14 10 14 6 0 10 -9 10 -21z m-20 -84 c0 -20
7 -49 15 -66 15 -29 15 -29 -7 -24 -20 5 -26 -1 -43 -40 -11 -25 -23 -45 -27
-45 -10 0 -10 14 -1 23 14 15 43 114 43 149 0 21 5 38 10 38 6 0 10 -16 10
-35z m458 -49 c6 -19 6 -52 1 -77 -4 -24 -8 -61 -9 -81 0 -26 -6 -40 -19 -48
-18 -9 -61 -14 -61 -7 0 2 9 43 20 93 11 49 20 104 20 122 0 25 4 32 20 32 13
0 22 -10 28 -34z m-791 -28 c-3 -8 -6 -5 -6 6 -1 11 2 17 5 13 3 -3 4 -12 1
-19z m631 -124 c-14 -14 -15 -11 -16 33 l0 48 16 -33 c14 -29 14 -34 0 -48z
m-33 -52 c-17 -12 -18 -52 -1 -52 9 0 16 -7 16 -15 0 -21 -30 -31 -40 -15 -6
10 -14 8 -35 -8 l-27 -21 -29 21 c-34 26 -35 28 -10 21 10 -3 22 0 25 6 4 6
17 11 29 11 29 0 48 13 52 36 2 10 4 20 4 22 1 1 7 2 14 2 7 0 8 -3 2 -8z m83
-9 c-5 -25 -28 -28 -28 -4 0 12 6 21 16 21 9 0 14 -7 12 -17z m-225 -165 c3
-18 9 -45 12 -61 6 -21 1 -35 -20 -63 -37 -48 -48 -33 -44 59 6 100 39 142 52
65z m4 -415 c-3 -10 -5 -4 -5 12 0 17 2 24 5 18 2 -7 2 -21 0 -30z m-376 -13
c6 -16 15 -28 21 -27 6 1 13 -4 16 -12 3 -8 0 -11 -7 -7 -6 4 -11 2 -11 -4 0
-8 -5 -7 -13 2 -24 24 -47 65 -40 71 13 14 24 6 34 -23z m1779 -15 c91 -11
120 -17 125 -25 7 -11 -23 -21 -48 -15 -53 12 -273 -37 -360 -81 -147 -75
-299 -222 -343 -332 -8 -20 -19 -46 -23 -57 -8 -18 -42 -135 -70 -245 -7 -25
-26 -94 -42 -155 -17 -60 -33 -120 -36 -133 -3 -12 -9 -25 -14 -28 -5 -3 -9
-12 -9 -19 0 -14 -51 -94 -77 -123 -7 -7 -13 -18 -13 -23 0 -5 -7 -9 -15 -9
-8 0 -15 -7 -15 -15 0 -15 -86 -105 -101 -105 -4 0 -26 -17 -49 -39 -23 -21
-53 -44 -68 -52 -15 -7 -40 -22 -57 -34 -16 -11 -41 -26 -55 -33 -14 -6 -32
-16 -40 -21 -8 -5 -26 -13 -40 -19 -14 -6 -47 -21 -75 -33 -83 -36 -177 -70
-220 -79 -22 -4 -67 -15 -100 -24 -128 -36 -316 -59 -513 -63 -211 -5 -214 -4
-191 53 7 16 14 38 15 49 1 11 11 63 22 115 17 84 18 117 11 280 -4 110 -14
211 -23 250 -9 36 -21 83 -26 105 -9 41 -67 176 -79 185 -4 3 -19 26 -33 51
-15 25 -56 76 -93 114 l-66 69 38 39 c21 22 64 59 97 83 53 40 63 44 115 44
64 0 153 -36 213 -87 33 -29 105 -84 201 -155 l50 -38 101 0 c114 0 181 16
234 57 86 65 232 227 232 257 0 18 173 208 225 249 35 26 56 36 70 32 73 -22
100 -28 184 -42 85 -14 104 -14 215 1 66 9 148 21 181 27 192 34 245 38 385
33 80 -3 161 -7 180 -9z m-399 -965 c2 -106 2 -106 12 -116 4 -4 7 -21 7 -38
0 -17 10 -65 21 -106 12 -41 24 -87 26 -103 3 -15 9 -30 14 -33 11 -6 12 -44
2 -44 -5 0 -16 21 -26 48 -10 26 -23 55 -28 64 -5 10 -9 28 -9 41 0 13 -4 27
-9 32 -15 17 -41 237 -34 293 9 82 23 61 24 -38z m-3417 -622 c2 -13 12 -63
22 -113 9 -49 25 -115 35 -145 19 -57 24 -90 13 -90 -16 0 -52 63 -73 130 -17
52 -27 240 -13 240 7 0 14 -10 16 -22z"/>
<path d="M11050 3331 c-8 -5 -40 -14 -70 -20 -54 -12 -100 -34 -100 -49 0 -5
9 -18 20 -30 16 -17 32 -22 70 -22 27 0 52 5 55 10 4 6 -12 10 -42 10 -26 0
-54 4 -61 8 -21 14 -3 40 31 48 18 3 37 10 42 14 6 5 36 11 68 15 31 4 57 11
57 16 0 11 -50 11 -70 0z"/>
<path d="M9920 6203 c-14 -3 -31 -10 -37 -15 -34 -27 5 -43 54 -23 67 28 223
13 352 -34 57 -22 86 -18 52 5 -58 41 -152 64 -274 69 -67 2 -133 1 -147 -2z"/>
<path d="M7115 6096 c-39 -39 -32 -87 16 -111 38 -20 83 -19 103 3 15 18 15
20 -2 43 -11 13 -25 38 -33 54 -19 39 -51 44 -84 11z"/>
<path d="M9342 6094 c-36 -25 -44 -49 -31 -93 12 -40 28 -51 79 -51 38 0 47
11 55 61 6 41 4 49 -20 73 -30 30 -51 33 -83 10z m48 -74 c0 -5 -6 -10 -14
-10 -8 0 -18 5 -21 10 -3 6 3 10 14 10 12 0 21 -4 21 -10z"/>
<path d="M10406 5669 c-14 -11 -26 -31 -26 -43 0 -26 38 -66 64 -66 15 0 13
-6 -13 -35 -39 -45 -39 -51 2 -27 17 10 46 27 64 37 25 15 32 27 38 63 4 25
12 53 18 63 14 22 3 36 -17 20 -10 -8 -21 -9 -40 -1 -40 15 -60 12 -90 -11z"/>
<path d="M10375 5480 c-3 -5 -1 -10 4 -10 6 0 11 5 11 10 0 6 -2 10 -4 10 -3
0 -8 -4 -11 -10z"/>
<path d="M4962 2935 c0 -16 2 -22 5 -12 2 9 2 23 0 30 -3 6 -5 -1 -5 -18z"/>
<path d="M4997 2883 c-12 -12 -7 -30 8 -30 17 0 18 6 7 25 -5 7 -11 9 -15 5z"/>
<path d="M6737 2293 c-4 -3 2 -13 14 -21 24 -17 37 -9 19 13 -14 16 -23 19
-33 8z"/>
<path d="M6810 2225 c7 -8 18 -15 24 -15 6 0 22 -6 36 -13 34 -18 60 -27 60
-22 0 5 -118 65 -127 65 -3 0 0 -7 7 -15z"/>
<path d="M6552 2020 c0 -14 2 -19 5 -12 2 6 2 18 0 25 -3 6 -5 1 -5 -13z"/>
<path d="M5826 301 c-25 -28 -17 -73 15 -88 21 -10 620 -13 2885 -15 l2859 -3
48 -29 c33 -19 52 -25 59 -18 6 6 6 12 -1 16 -20 13 -13 46 10 46 18 0 20 4
14 28 -11 43 -40 63 -108 73 -35 5 -1284 9 -2913 9 -2794 0 -2851 0 -2868 -19z"/>
</g>
</svg>
